<svg width="64" height="64" viewBox="0 0 64 64" fill="none" xmlns="http://www.w3.org/2000/svg">
<rect width="64" height="64" rx="32" fill="#FCF6E8"/>
<path fill-rule="evenodd" clip-rule="evenodd" d="M29.3267 21.3333H34.6733C39.7142 21.3333 42.2346 21.3333 43.8006 22.8954C44.8788 23.971 45.2146 25.4979 45.3193 27.986C45.34 28.4794 45.3504 28.7261 45.2582 28.8907C45.1661 29.0553 44.7983 29.2607 44.0626 29.6715C43.2455 30.1278 42.6933 30.9996 42.6933 32C42.6933 33.0004 43.2455 33.8722 44.0626 34.3285C44.7983 34.7393 45.1661 34.9447 45.2582 35.1093C45.3504 35.2739 45.34 35.5206 45.3193 36.014C45.2146 38.5021 44.8788 40.029 43.8006 41.1046C42.2346 42.6667 39.7142 42.6667 34.6733 42.6667H29.3267C24.2859 42.6667 21.7654 42.6667 20.1995 41.1046C19.1212 40.029 18.7854 38.5021 18.6808 36.014C18.66 35.5206 18.6497 35.2739 18.7418 35.1093C18.834 34.9447 19.2018 34.7393 19.9375 34.3285C20.7545 33.8722 21.3068 33.0004 21.3068 32C21.3068 30.9996 20.7545 30.1278 19.9375 29.6715C19.2018 29.2607 18.834 29.0553 18.7418 28.8907C18.6497 28.7261 18.66 28.4794 18.6808 27.986C18.7854 25.4979 19.1212 23.971 20.1995 22.8954C21.7654 21.3333 24.2859 21.3333 29.3267 21.3333ZM36.7305 27.2929C37.122 27.6834 37.122 28.3166 36.7305 28.7071L28.7105 36.7071C28.319 37.0976 27.6843 37.0976 27.2928 36.7071C26.9013 36.3166 26.9013 35.6834 27.2928 35.2929L35.3127 27.2929C35.7042 26.9024 36.339 26.9024 36.7305 27.2929ZM35.3533 36.6667C36.0915 36.6667 36.6899 36.0697 36.6899 35.3333C36.6899 34.5969 36.0915 34 35.3533 34C34.6151 34 34.0166 34.5969 34.0166 35.3333C34.0166 36.0697 34.6151 36.6667 35.3533 36.6667ZM28.67 30C29.4082 30 30.0067 29.403 30.0067 28.6667C30.0067 27.9303 29.4082 27.3333 28.67 27.3333C27.9318 27.3333 27.3333 27.9303 27.3333 28.6667C27.3333 29.403 27.9318 30 28.67 30Z" fill="#EAB749"/>
</svg>
