<svg width="48" height="48" viewBox="0 0 48 48" fill="none" xmlns="http://www.w3.org/2000/svg">
<mask id="mask0_142_348" style="mask-type:luminance" maskUnits="userSpaceOnUse" x="0" y="0" width="48" height="48">
<path d="M48 24C48 10.7452 37.2548 0 24 0C10.7452 0 0 10.7452 0 24C0 37.2548 10.7452 48 24 48C37.2548 48 48 37.2548 48 24Z" fill="white"/>
</mask>
<g mask="url(#mask0_142_348)">
<path d="M48 24C48 10.7452 37.2548 0 24 0C10.7452 0 0 10.7452 0 24C0 37.2548 10.7452 48 24 48C37.2548 48 48 37.2548 48 24Z" fill="#F9EDD3"/>
<path d="M50.5 30H-0.5V56H50.5V30Z" fill="#FFE4AA"/>
<mask id="mask1_142_348" style="mask-type:luminance" maskUnits="userSpaceOnUse" x="2" y="9" width="44" height="43">
<path d="M45.5 9H2.5V52H45.5V9Z" fill="white"/>
</mask>
<g mask="url(#mask1_142_348)">
<path d="M28.1773 9.24598C27.8553 9.00856 27.4399 8.93801 27.0575 9.05609L10.1673 14.2741C9.57194 14.4581 9.20047 15.0496 9.29353 15.6658C9.38658 16.2819 9.91611 16.7375 10.5392 16.7375H27.4294C28.1251 16.7375 28.6891 16.1734 28.6891 15.4777V10.2598C28.6891 9.85974 28.4992 9.48349 28.1773 9.24598Z" fill="#A77918"/>
<path d="M28.1782 9.24598C27.8563 9.00856 27.4408 8.93801 27.0584 9.05609L23.959 10.0137V16.7375H27.4303C28.126 16.7375 28.6901 16.1734 28.6901 15.4777V10.2598C28.6901 9.85974 28.5001 9.48349 28.1782 9.24598Z" fill="#C18C1B"/>
<path d="M37.4608 14.218H10.5391C9.84334 14.218 9.2793 14.782 9.2793 15.4777V50.7402C9.2793 51.436 9.84334 52 10.5391 52H37.4608C38.1565 52 38.7205 51.436 38.7205 50.7402V15.4777C38.7205 14.782 38.1565 14.218 37.4608 14.218Z" fill="#E4B653"/>
<path d="M37.4618 14.218H23.959V52H37.4618C38.1575 52 38.7216 51.436 38.7216 50.7402V15.4777C38.7216 14.782 38.1575 14.218 37.4618 14.218Z" fill="#F3C254"/>
<path d="M31.1954 18.1489H16.7207C16.025 18.1489 15.4609 18.7129 15.4609 19.4087C15.4609 20.1044 16.025 20.6684 16.7207 20.6684H31.1955C31.8912 20.6684 32.4553 20.1044 32.4553 19.4087C32.4553 18.7129 31.8911 18.1489 31.1954 18.1489Z" fill="#C18C1B"/>
<path d="M28.6759 23.188H19.2402C18.5445 23.188 17.9805 23.752 17.9805 24.4477C17.9805 25.1434 18.5445 25.7075 19.2402 25.7075H28.676C29.3717 25.7075 29.9357 25.1434 29.9357 24.4477C29.9357 23.752 29.3716 23.188 28.6759 23.188Z" fill="#C18C1B"/>
<path d="M31.1963 18.1489H23.959V20.6684H31.1963C31.8921 20.6684 32.4561 20.1044 32.4561 19.4087C32.4561 18.7129 31.8921 18.1489 31.1963 18.1489Z" fill="white"/>
<path d="M28.6768 23.188H23.959V25.7075H28.6768C29.3725 25.7075 29.9366 25.1434 29.9366 24.4477C29.9366 23.752 29.3725 23.188 28.6768 23.188Z" fill="white"/>
<path d="M32.3535 38.0277H32.0721C31.9057 34.1565 29.0029 30.9826 25.2534 30.3963V30.0257C25.2534 29.3338 24.6924 28.7728 24.0005 28.7728C23.3085 28.7728 22.7475 29.3338 22.7475 30.0257V30.3963C18.998 30.9826 16.0953 34.1565 15.9288 38.0277H15.6475C14.9555 38.0277 14.3945 38.5886 14.3945 39.2806C14.3945 39.9726 14.9555 40.5336 15.6475 40.5336H32.3535C33.0454 40.5336 33.6064 39.9726 33.6064 39.2806C33.6064 38.5886 33.0454 38.0277 32.3535 38.0277Z" fill="#A77918"/>
<path d="M32.3537 38.0277H32.0724C31.906 34.1565 29.0032 30.9826 25.2537 30.3963V30.0257C25.2537 29.3338 24.6927 28.7728 24.0007 28.7728C23.9866 28.7728 23.9729 28.7745 23.959 28.7749V40.5335H32.3537C33.0457 40.5335 33.6067 39.9725 33.6067 39.2805C33.6067 38.5886 33.0457 38.0277 32.3537 38.0277Z" fill="#C18C1B"/>
</g>
</g>
</svg>
