<svg width="48" height="48" viewBox="0 0 48 48" fill="none" xmlns="http://www.w3.org/2000/svg">
<g clip-path="url(#clip0_142_175)">
<mask id="mask0_142_175" style="mask-type:luminance" maskUnits="userSpaceOnUse" x="0" y="0" width="48" height="48">
<path d="M48 24C48 10.7452 37.2548 0 24 0C10.7452 0 0 10.7452 0 24C0 37.2548 10.7452 48 24 48C37.2548 48 48 37.2548 48 24Z" fill="white"/>
</mask>
<g mask="url(#mask0_142_175)">
<path d="M48 24C48 10.7452 37.2548 0 24 0C10.7452 0 0 10.7452 0 24C0 37.2548 10.7452 48 24 48C37.2548 48 48 37.2548 48 24Z" fill="#F9EDD3"/>
<path d="M25.625 15.9375C25.625 15.1604 24.9962 14.5312 24.2187 14.5312H15.7812C15.0038 14.5312 14.375 15.1604 14.375 15.9375V21.5629C14.375 22.34 15.0038 22.9691 15.7812 22.9691H25.625C25.625 22.9691 25.625 16.715 25.625 15.9375Z" fill="#996E12"/>
<path d="M36.8753 13.125V21.5629C36.8753 22.3502 36.2565 22.9691 35.4691 22.9691H24.2187C23.4314 22.9691 22.8125 22.3502 22.8125 21.5629V13.125C22.8125 12.3376 23.4314 11.7188 24.2187 11.7188H35.4691C36.2565 11.7188 36.8753 12.3376 36.8753 13.125Z" fill="#E4B653"/>
<path d="M36.8753 13.125V21.5629C36.8753 22.3502 36.2565 22.9691 35.4691 22.9691H24.2188V11.7188H35.4691C36.2565 11.7188 36.8753 12.3376 36.8753 13.125Z" fill="#996E12"/>
<path d="M8.75035 13.125C8.75035 10.7988 6.85777 8.90625 4.53124 8.90625H-4.09375C-4.87085 8.90625 -5.5 9.5354 -5.5 10.3125C-5.5 11.09 -4.87085 11.7188 -4.09375 11.7188H4.53124C5.30724 11.7188 5.93749 12.3494 5.94591 13.2803L6.70983 20.1566L8.09117 22.9691L9.53441 20.1566L8.75035 13.125Z" fill="#996E12"/>
<path d="M34.0632 44.0632C34.0632 44.8506 33.4443 45.4695 32.6569 45.4695H10.1566C7.82202 45.4695 5.9375 43.585 5.9375 41.2504C5.9375 38.9161 7.82202 37.0316 10.1566 37.0316C10.944 37.0316 11.5629 37.6505 11.5629 38.4379C11.5629 39.2256 10.944 39.8441 10.1566 39.8441C9.36889 39.8441 8.75036 40.463 8.75036 41.2504C8.75036 42.0381 9.36889 42.657 10.1566 42.657H32.6569C33.4443 42.657 34.0632 43.2755 34.0632 44.0632Z" fill="#996E12"/>
<path d="M34.0629 44.0632C34.0629 44.8506 33.444 45.4695 32.6566 45.4695H24.2188V42.657H32.6566C33.444 42.657 34.0629 43.2755 34.0629 44.0632Z" fill="#996E12"/>
<path d="M42.4727 21.7877L40.0539 36.3285C39.7166 38.3536 37.9727 39.8441 35.8916 39.8441H10.1569C9.45373 39.8441 8.83484 39.3098 8.75061 38.6067L6.69727 20.1566H41.0947C41.5166 20.1566 41.9102 20.3251 42.1633 20.6627C42.4445 20.9722 42.5573 21.394 42.4727 21.7877Z" fill="#E4B653"/>
<path d="M15.7812 34.2191C15.0038 34.2191 14.375 33.5903 14.375 32.8129V27.1879C14.375 26.4104 15.0038 25.7816 15.7812 25.7816C16.5583 25.7816 17.1875 26.4104 17.1875 27.1879V32.8129C17.1875 33.5903 16.5583 34.2191 15.7812 34.2191Z" fill="white"/>
<path d="M25.625 27.1879V32.8129C25.625 33.6002 25.0065 34.2191 24.2187 34.2191C23.4314 34.2191 22.8125 33.6002 22.8125 32.8129V27.1879C22.8125 26.4001 23.4314 25.7816 24.2187 25.7816C25.0065 25.7816 25.625 26.4001 25.625 27.1879Z" fill="white"/>
<path d="M32.6562 34.2191C31.8788 34.2191 31.25 33.5903 31.25 32.8129V27.1879C31.25 26.4104 31.8788 25.7816 32.6562 25.7816C33.4333 25.7816 34.0625 26.4104 34.0625 27.1879V32.8129C34.0625 33.5903 33.4333 34.2191 32.6562 34.2191Z" fill="white"/>
</g>
</g>
<defs>
<clipPath id="clip0_142_175">
<rect width="48" height="48" fill="white"/>
</clipPath>
</defs>
</svg>
