<svg width="24" height="24" viewBox="0 0 24 24" fill="none" xmlns="http://www.w3.org/2000/svg">
<path d="M9.12001 10C10.1804 10 11.04 9.10457 11.04 8C11.04 6.89543 10.1804 6 9.12001 6C8.05963 6 7.20001 6.89543 7.20001 8C7.20001 9.10457 8.05963 10 9.12001 10Z" stroke="#EAB849" stroke-width="1.5" stroke-linecap="round" stroke-linejoin="round"/>
<path d="M12.96 2H9.12002C4.32002 2 2.40002 4 2.40002 9V15C2.40002 20 4.32002 22 9.12002 22H14.88C19.68 22 21.6 20 21.6 15V10" stroke="black" stroke-width="1.5" stroke-linecap="round" stroke-linejoin="round"/>
<path d="M17.76 8V2L19.68 4" stroke="#EAB849" stroke-width="1.5" stroke-linecap="round" stroke-linejoin="round"/>
<path d="M17.76 2L15.84 4" stroke="#EAB849" stroke-width="1.5" stroke-linecap="round" stroke-linejoin="round"/>
<path d="M3.04315 18.9501L7.77595 15.6401C8.53435 15.1101 9.62873 15.1701 10.3103 15.7801L10.6271 16.0701C11.3759 16.7401 12.5855 16.7401 13.3343 16.0701L17.3279 12.5001C18.0767 11.8301 19.2863 11.8301 20.0351 12.5001L21.5999 13.9001" stroke="black" stroke-width="1.5" stroke-linecap="round" stroke-linejoin="round"/>
</svg>
