<svg width="24" height="24" viewBox="0 0 24 24" fill="none" xmlns="http://www.w3.org/2000/svg">
<g clip-path="url(#clip0_24_209)">
<path d="M0.787138 11.2064L0.786857 11.2047C0.69476 10.652 0.776748 9.98256 1.01772 9.3398C1.25881 8.69675 1.63551 8.14306 2.06516 7.79437L2.06646 7.79331L9.79393 1.49332C11.0118 0.498406 12.9762 0.502392 14.2152 1.50629C14.215 1.50617 14.2154 1.50642 14.2152 1.50629L21.9392 7.79143C22.3585 8.14011 22.7307 8.69455 22.9727 9.33877C23.2144 9.9821 23.302 10.6506 23.22 11.1995L21.7351 20.2378C21.735 20.2385 21.7349 20.2392 21.7348 20.2398C21.4508 21.8963 19.8647 23.25 18.2508 23.25H5.74533C4.10609 23.25 2.55722 21.9306 2.27336 20.2527C2.27328 20.2522 2.27319 20.2517 2.27311 20.2512L0.787138 11.2064Z" fill="#171003"/>
<path d="M14.2152 1.50629C12.9762 0.502392 11.0118 0.498406 9.79393 1.49332L2.06646 7.79331L2.06516 7.79437C1.63551 8.14306 1.25881 8.69675 1.01772 9.3398C0.776748 9.98256 0.69476 10.652 0.786857 11.2047L0.787138 11.2064L2.27311 20.2512C2.27319 20.2517 2.27328 20.2522 2.27336 20.2527C2.55722 21.9306 4.10609 23.25 5.74533 23.25H18.2508C19.8647 23.25 21.4508 21.8963 21.7348 20.2398C21.7349 20.2392 21.735 20.2385 21.7351 20.2378L23.22 11.1995C23.302 10.6506 23.2144 9.9821 22.9727 9.33877C22.7307 8.69455 22.3585 8.14011 21.9392 7.79143L14.2152 1.50629ZM14.2152 1.50629C14.2154 1.50642 14.215 1.50617 14.2152 1.50629Z" stroke="#171003" stroke-width="1.5"/>
<path d="M13 9C13 8.44772 12.5523 8 12 8C11.4477 8 11 8.44772 11 9V19C11 19.5523 11.4477 20 12 20C12.5523 20 13 19.5523 13 19V9Z" fill="#EAB849"/>
</g>
<defs>
<clipPath id="clip0_24_209">
<rect width="24" height="24" fill="white"/>
</clipPath>
</defs>
</svg>
