<svg width="49" height="48" viewBox="0 0 49 48" fill="none" xmlns="http://www.w3.org/2000/svg">
<g clip-path="url(#clip0_113_55)">
<mask id="mask0_113_55" style="mask-type:luminance" maskUnits="userSpaceOnUse" x="0" y="0" width="49" height="48">
<path d="M48.875 24C48.875 10.7452 38.1298 0 24.875 0C11.6202 0 0.875 10.7452 0.875 24C0.875 37.2548 11.6202 48 24.875 48C38.1298 48 48.875 37.2548 48.875 24Z" fill="white"/>
</mask>
<g mask="url(#mask0_113_55)">
<path d="M48.875 24C48.875 10.7452 38.1298 0 24.875 0C11.6202 0 0.875 10.7452 0.875 24C0.875 37.2548 11.6202 48 24.875 48C38.1298 48 48.875 37.2548 48.875 24Z" fill="#F9EDD3"/>
<path d="M49.375 5H42.375C41.8227 5 41.375 5.44772 41.375 6V47C41.375 47.5523 41.8227 48 42.375 48H49.375C49.9273 48 50.375 47.5523 50.375 47V6C50.375 5.44772 49.9273 5 49.375 5Z" fill="#FFE4AA"/>
<path d="M6.375 5H-0.625C-1.17728 5 -1.625 5.44772 -1.625 6V47C-1.625 47.5523 -1.17728 48 -0.625 48H6.375C6.92729 48 7.375 47.5523 7.375 47V6C7.375 5.44772 6.92729 5 6.375 5Z" fill="#FFE4AA"/>
<path d="M47.362 31.9288C47.3491 31.6607 47.2518 31.4056 47.0901 31.2115V31.2066L40.2421 23.3323C40.059 23.1201 39.8086 23 39.5482 23H10.0844C9.82251 23 9.57068 23.1217 9.38754 23.3373L2.65258 31.2115C2.57675 31.3036 2.51379 31.4122 2.46944 31.529C2.45513 31.5636 2.4494 31.5981 2.43796 31.6327C2.40934 31.7281 2.39217 31.8285 2.38645 31.9305C2.38645 31.9535 2.375 31.9749 2.375 31.9996V35.374C2.375 35.3905 2.38215 35.4036 2.38215 35.4184C2.38502 35.5517 2.40791 35.6833 2.45083 35.8084C2.45083 35.8166 2.45799 35.8232 2.46085 35.8314C2.50521 35.9433 2.5653 36.0469 2.63971 36.1358C2.6626 36.1621 2.68692 36.1868 2.71268 36.2115C2.7742 36.274 2.84431 36.3283 2.91872 36.3711C2.94877 36.3892 2.97881 36.4056 3.01029 36.4204C3.1176 36.4698 3.23207 36.4977 3.3494 36.501H6.28548V57.8746C6.28548 58.4965 6.72332 59 7.26417 59H8.24287C8.78372 59 9.22156 58.4965 9.22156 57.8746V36.4977H12.1562V48.8718C12.1562 49.4937 12.594 49.9971 13.1349 49.9971H14.1136C14.6545 49.9971 15.0923 49.4937 15.0923 48.8718V36.4977H34.6561V48.8718C34.6561 49.4937 35.094 49.9971 35.6348 49.9971H36.6135C37.1544 49.9971 37.5922 49.4937 37.5922 48.8718V36.4977H40.5269V57.8713C40.5269 58.4933 40.9647 58.9967 41.5056 58.9967H42.4843C43.0251 58.9967 43.4629 58.4933 43.4629 57.8713V36.4977H46.3976C46.5149 36.4944 46.6308 36.4681 46.7396 36.4171C46.771 36.4023 46.8025 36.3859 46.8326 36.3661C46.907 36.3233 46.9757 36.2707 47.0372 36.2082C47.0629 36.1835 47.0873 36.1588 47.1102 36.1325C47.1831 36.0453 47.2418 35.9433 47.2861 35.8331C47.2861 35.8232 47.2962 35.8166 47.3005 35.8067C47.3434 35.6817 47.3663 35.5501 47.3677 35.4168C47.3677 35.402 47.3749 35.3905 47.3749 35.3757V31.9996C47.3763 31.9749 47.3663 31.9552 47.3648 31.9305L47.362 31.9288Z" fill="#E4B653"/>
<path d="M9.375 36H3.375V48H9.375V36Z" fill="#E4B653"/>
<path d="M49.375 36H40.375V48H49.375V36Z" fill="#E4B653"/>
<path d="M2.375 33C2.375 32.4477 2.82272 32 3.375 32H46.375C46.9273 32 47.375 32.4477 47.375 33V36C47.375 36.5523 46.9273 37 46.375 37H3.375C2.82272 37 2.375 36.5523 2.375 36V33Z" fill="#986E14"/>
<mask id="mask1_113_55" style="mask-type:luminance" maskUnits="userSpaceOnUse" x="9" y="2" width="31" height="31">
<path d="M39.375 2H9.375V33H39.375V2Z" fill="white"/>
</mask>
<g mask="url(#mask1_113_55)">
<path d="M35.8594 22.041V29.3066C35.8594 29.8152 35.4727 30.2148 34.9805 30.2148C34.4882 30.2148 34.1016 29.8152 34.1016 29.3066V22.041C34.1016 21.5324 34.4882 21.1328 34.9805 21.1328C35.4727 21.1328 35.8594 21.5324 35.8594 22.041Z" fill="#E4B653"/>
<path d="M35.8594 22.041V29.3066C35.8594 29.8152 35.4727 30.2148 34.9805 30.2148V21.1328C35.4727 21.1328 35.8594 21.5324 35.8594 22.041Z" fill="#986E14"/>
<path d="M21.7383 16.5918V18.4082C21.7383 18.9167 21.3516 19.3164 20.8594 19.3164C20.3671 19.3164 19.9805 18.9167 19.9805 18.4082V16.5918C19.9805 16.0831 20.3671 15.6836 20.8594 15.6836C21.3516 15.6836 21.7383 16.0831 21.7383 16.5918Z" fill="#FFDB8B"/>
<path d="M20.8594 19.3164V15.6836C21.3516 15.6836 21.7383 16.0831 21.7383 16.5918V18.4082C21.7383 18.9167 21.3516 19.3164 20.8594 19.3164Z" fill="#986E14"/>
<path d="M30.5859 27.4902V29.3066H11.1328V27.4902C11.1328 21.9865 15.5331 17.5 20.8594 17.5C26.1856 17.5 30.5859 21.9865 30.5859 27.4902Z" fill="#FFDC92"/>
<path d="M30.5859 27.4902V29.3066H20.8594V17.5C26.1856 17.5 30.5859 21.9865 30.5859 27.4902Z" fill="#E4B653"/>
<path d="M28.8281 11.3098C28.8281 12.8174 27.6504 14.0344 26.1914 14.0344H19.1016C18.6093 14.0344 18.2227 14.434 18.2227 14.9426C18.2227 15.4512 17.836 15.8508 17.3438 15.8508C16.8515 15.8508 16.4648 15.4512 16.4648 14.9426C16.4648 13.4349 17.6425 12.218 19.1016 12.218H26.1914C26.6837 12.218 27.0703 11.8183 27.0703 11.3098C27.0703 10.8012 26.6837 10.4016 26.1914 10.4016H22.6172C21.9316 10.4016 21.3164 10.1291 20.8594 9.69321C20.3145 9.20284 19.9805 8.47628 19.9805 7.677V5.8606C19.9805 5.35194 20.3671 4.95239 20.8594 4.95239C21.3516 4.95239 21.7383 5.35194 21.7383 5.8606V7.677C21.7383 8.18566 22.1249 8.58521 22.6172 8.58521H26.1914C27.6504 8.58521 28.8281 9.80214 28.8281 11.3098Z" fill="#E4B653"/>
<path d="M39.375 29.3066C39.375 29.8152 38.9883 30.2148 38.4961 30.2148H10.2539C9.76166 30.2148 9.375 29.8152 9.375 29.3066C9.375 28.798 9.76166 28.3984 10.2539 28.3984H38.4961C38.9883 28.3984 39.375 28.798 39.375 29.3066Z" fill="#986E14"/>
<path d="M38.4961 12.0508H31.4648C30.9726 12.0508 30.5859 12.4503 30.5859 12.959V18.4082C30.5859 20.9148 32.5547 22.9492 34.9805 22.9492C37.4063 22.9492 39.375 20.9148 39.375 18.4082V12.959C39.375 12.4503 38.9883 12.0508 38.4961 12.0508Z" fill="#986E14"/>
<path d="M39.375 29.3066C39.375 29.8152 38.9883 30.2148 38.4961 30.2148H20.8594V28.3984H38.4961C38.9883 28.3984 39.375 28.798 39.375 29.3066Z" fill="white"/>
<path d="M39.375 12.959V18.4082C39.375 20.9148 37.4063 22.9492 34.9805 22.9492V12.0508H38.4961C38.9883 12.0508 39.375 12.4503 39.375 12.959Z" fill="#986E14"/>
</g>
</g>
</g>
<defs>
<clipPath id="clip0_113_55">
<rect width="48" height="48" fill="white" transform="translate(0.875)"/>
</clipPath>
</defs>
</svg>
