<svg width="48" height="48" viewBox="0 0 48 48" fill="none" xmlns="http://www.w3.org/2000/svg">
<g clip-path="url(#clip0_142_92)">
<path d="M48 24C48 10.7452 37.2548 0 24 0C10.7452 0 0 10.7452 0 24C0 37.2548 10.7452 48 24 48C37.2548 48 48 37.2548 48 24Z" fill="#FFE4AA"/>
<path d="M44.8247 29.8355C44.7337 30.319 44.5182 30.7685 44.1742 31.1227C43.8391 31.4676 43.4205 31.7211 42.9857 31.9201C42.0086 32.3674 40.9361 32.5914 39.8808 32.7637C38.7797 32.9434 37.6674 33.053 36.5554 33.1389C35.4358 33.2254 34.3149 33.296 33.1933 33.3523C30.9546 33.4648 28.7146 33.5424 26.4764 33.6678C24.2652 33.7917 22.049 33.9444 19.8604 34.296C18.8096 34.4649 17.7523 34.6737 16.7542 35.052C16.3055 35.222 15.7992 35.4284 15.4629 35.7836C15.3395 35.9139 15.299 36.0144 15.343 36.1894C15.3961 36.4006 15.5073 36.5978 15.6235 36.78C15.9051 37.2215 16.2658 37.6121 16.638 37.9782C16.7436 38.0822 16.8511 38.1837 16.9602 38.2841C17.0206 38.3397 17.0531 38.3537 17.1298 38.3864C17.5825 38.5797 18.0877 38.6532 18.5727 38.7152C19.1068 38.7835 19.6443 38.8234 20.1819 38.8538C21.133 38.9074 22.0864 38.925 23.0384 38.9524C25.1798 39.0142 27.3266 39.0908 29.4455 39.4284C31.4796 39.7525 33.5433 40.3506 35.2274 41.5768C36.0561 42.1801 36.779 42.9293 37.3217 43.8008C37.3369 43.8253 37.3518 43.8499 37.3667 43.8745C37.3946 43.9206 37.394 43.9005 37.3638 43.9389C37.3329 43.9782 37.2586 44.0092 37.2157 44.0376C37.1018 44.1128 36.9871 44.1871 36.872 44.2604C36.6564 44.3975 36.4387 44.5312 36.2188 44.6615C35.778 44.9227 35.3289 45.1696 34.8723 45.4021C34.4031 45.6409 33.9261 45.8642 33.4422 46.0717C33.2103 46.171 32.977 46.2668 32.7421 46.3588C32.6974 46.3764 32.5964 46.4334 32.5672 46.4082C32.5322 46.378 32.5082 46.2784 32.4856 46.2358C32.428 46.1271 32.3622 46.0221 32.2888 45.9233C31.7064 45.1384 30.7377 44.6666 29.8493 44.3215C28.8501 43.9333 27.806 43.6743 26.7559 43.467C25.6703 43.2527 24.5757 43.0932 23.4784 42.9536C22.3994 42.8163 21.319 42.6913 20.2409 42.5469C19.1845 42.4055 18.1223 42.2484 17.0956 41.9547C16.2428 41.7108 15.3961 41.3552 14.7539 40.7261C14.5956 40.571 14.4506 40.399 14.3063 40.2312C13.9626 39.8321 13.6373 39.4157 13.3493 38.9744C12.8241 38.1697 12.4023 37.2488 12.3834 36.2725C12.363 35.2186 12.8609 34.2585 13.6747 33.6035C14.4836 32.9524 15.5044 32.5992 16.502 32.3592C17.5479 32.1075 18.6209 31.9644 19.6908 31.8627C21.8932 31.6535 24.1136 31.6194 26.3245 31.5983C28.5661 31.5769 30.8077 31.5872 33.0492 31.5508C35.2631 31.515 37.4919 31.4587 39.6866 31.1419C40.2249 31.0642 40.7618 30.9687 41.2889 30.8339C41.7801 30.7083 42.2814 30.5557 42.7174 30.2904C42.9044 30.1766 43.0952 30.0369 43.2008 29.8399C43.2997 29.6552 43.3474 29.4131 43.3182 29.2056C43.2538 28.7466 42.8059 28.433 42.4332 28.2223C41.9911 27.9723 41.5066 27.8023 41.0191 27.6654C40.9773 27.6536 40.4409 27.4893 40.4232 27.5286C40.4232 27.4515 40.457 27.3622 40.4728 27.2875C40.5099 27.1133 40.5474 26.9392 40.585 26.7652C40.6219 26.5948 40.6589 26.4244 40.6968 26.2541C40.6995 26.2415 40.7404 26.0171 40.7513 26.0171C40.7528 26.0491 41.1839 26.1291 41.2237 26.1392C41.6885 26.2565 42.1476 26.4044 42.5883 26.5936C43.3965 26.9408 44.1988 27.4533 44.6127 28.2578C44.8625 28.7425 44.9318 29.3019 44.8247 29.8355Z" fill="#996E12"/>
<path d="M35.1977 28.9175C38.6206 28.9175 41.3954 27.7744 41.3954 26.3644C41.3954 24.9543 38.6206 23.8113 35.1977 23.8113C31.7748 23.8113 29 24.9543 29 26.3644C29 27.7744 31.7748 28.9175 35.1977 28.9175Z" fill="#E7B649"/>
<path d="M46.9387 16.9176H1.0625C4.08454 7.11968 13.2114 0 24.0006 0C34.7898 0 43.9167 7.11968 46.9387 16.9176Z" fill="#F9EDD3"/>
<path d="M24.4923 32.2612L15.9659 47.0296C14.4084 46.3269 12.942 45.4562 11.5919 44.4402L4.56095 32.2612C1.81105 27.4979 2.90219 21.9962 6.24504 18.508C8.28659 16.3782 11.1678 15 14.5266 15C23.3852 15 28.9216 24.5895 24.4923 32.2612Z" fill="#E7B649"/>
<path d="M20.521 26.5068C20.521 29.3301 18.5692 31.6972 15.9414 32.3333C15.4876 32.4444 15.0132 32.5022 14.5256 32.5022C11.2158 32.5022 8.53125 29.8177 8.53125 26.5068C8.53125 23.197 11.2158 20.5125 14.5256 20.5125C15.0133 20.5125 15.4876 20.5704 15.9414 20.6814C18.5693 21.3176 20.521 23.6846 20.521 26.5068Z" fill="#996E12"/>
<path d="M20.5213 26.507C20.5213 29.3304 18.5694 31.6974 15.9417 32.3335C13.3139 31.6974 11.3633 29.3303 11.3633 26.507C11.3633 23.6849 13.3139 21.3178 15.9417 20.6817C18.5695 21.3178 20.5213 23.6849 20.5213 26.507Z" fill="white"/>
<path d="M35.2004 26L40.6482 17C43.0695 13 40.0429 8 35.2004 8C30.3579 8 27.3313 13 29.7525 17L35.2004 26Z" fill="#996E12"/>
<path d="M34.3 26L39.7478 17C42.1691 13 39.1426 8 34.3 8C29.4575 8 26.4309 13 28.8522 17L34.3 26Z" fill="#E7B649"/>
<path d="M37.8992 13.8497C37.8992 15.3333 36.7271 16.577 35.1491 16.9112C34.8766 16.9696 34.5917 17 34.2989 17C32.3113 17 30.6992 15.5895 30.6992 13.8497C30.6992 12.1106 32.3113 10.7 34.2989 10.7C34.5917 10.7 34.8766 10.7305 35.1491 10.7888C36.7271 11.1231 37.8992 12.3669 37.8992 13.8497Z" fill="#996E12"/>
<path d="M37.8996 13.8497C37.8996 15.3333 36.874 16.577 35.4933 16.9112C35.2548 16.9696 35.0056 17 34.7493 17C33.0102 17 31.5996 15.5895 31.5996 13.8497C31.5996 12.1106 33.0102 10.7 34.7493 10.7C35.0056 10.7 35.2548 10.7305 35.4933 10.7888C36.874 11.1231 37.8996 12.3669 37.8996 13.8497Z" fill="white"/>
</g>
<defs>
<clipPath id="clip0_142_92">
<rect width="48" height="48" fill="white"/>
</clipPath>
</defs>
</svg>
