<svg width="24" height="24" viewBox="0 0 24 24" fill="none" xmlns="http://www.w3.org/2000/svg">
<path d="M22 12C22 6.47715 17.5228 2 12 2C6.47715 2 2 6.47715 2 12C2 17.5228 6.47715 22 12 22C17.5228 22 22 17.5228 22 12Z" fill="#E4B653"/>
<path d="M6.75001 11.75L6.75 11.75C6.33579 12.1642 6.33579 12.8358 6.75 13.25L9.75001 16.25C10.1642 16.6642 10.8358 16.6642 11.25 16.25L11.25 16.25C11.6642 15.8358 11.6642 15.1642 11.25 14.75L8.25001 11.75C7.83579 11.3358 7.16422 11.3358 6.75001 11.75Z" fill="#1A1A1A"/>
<path d="M17.25 8.75001L17.25 8.75C16.8358 8.33579 16.1642 8.33579 15.75 8.75L9.75 14.75C9.33579 15.1642 9.33579 15.8358 9.75 16.25L9.75001 16.25C10.1642 16.6642 10.8358 16.6642 11.25 16.25L17.25 10.25C17.6642 9.83579 17.6642 9.16422 17.25 8.75001Z" fill="#1A1A1A"/>
</svg>
