<svg width="65" height="64" viewBox="0 0 65 64" fill="none" xmlns="http://www.w3.org/2000/svg">
<path d="M32.5 58.6668C47.1667 58.6668 59.1667 46.6668 59.1667 32.0002C59.1667 17.3335 47.1667 5.3335 32.5 5.3335C17.8333 5.3335 5.83337 17.3335 5.83337 32.0002C5.83337 46.6668 17.8333 58.6668 32.5 58.6668Z" fill="#D94D27"/>
<path d="M29.5 41C29.5 39.3431 30.8431 38 32.5 38C34.1569 38 35.5 39.3431 35.5 41C35.5 42.6569 34.1569 44 32.5 44C30.8431 44 29.5 42.6569 29.5 41Z" fill="white"/>
<path d="M29.794 22.9851C29.6342 21.3869 30.8892 20 32.4955 20C34.1017 20 35.3568 21.3869 35.197 22.9851L34.1447 33.5074C34.06 34.3547 33.347 35 32.4955 35C31.6439 35 30.931 34.3548 30.8462 33.5074L29.794 22.9851Z" fill="white"/>
</svg>
